<svg xmlns="http://www.w3.org/2000/svg" width="272" height="80" viewBox="0 0 272 80">
    <g fill="none">
        <path fill="#968C83" d="M6.2,6.6 L8.9,6.6 L8.9,22.8 L6.2,22.8 L6.2,6.6 Z M26.9,22.8 L29.6,22.8 L29.6,6.6 L26.9,6.6 L26.9,22.8 Z M33.1,22.8 L35.8,22.8 L35.8,6.6 L33.1,6.6 L33.1,22.8 Z M0,22.8 L2.7,22.8 L2.7,6.6 L0,6.6 L0,22.8 Z M35.8,3.1 L0,3.1 L0,4.6 L35.8,4.6 L35.8,3.1 Z"/>
        <path fill="#BA0020" d="M12.4,6.6 L15.1,6.6 L15.1,22.8 L12.4,22.8 L12.4,6.6 L12.4,6.6 Z M20.7,22.8 L23.4,22.8 L23.4,6.6 L20.7,6.6 L20.7,22.8 Z M23.4,0 L12.4,0 L12.4,1.5 L23.4,1.5 L23.4,0 Z M61.7,22.8 L61.7,14.9 L54,14.9 L54,22.8 L50.5,22.8 L50.5,4.6 L54,4.6 L54,11.9 L61.7,11.9 L61.7,4.6 L65.2,4.6 L65.2,22.7 L61.7,22.7 L61.7,22.8 Z M79.6,16.6 L71.3,16.6 C71.3,19.1 72.5,20.3 75,20.3 C76.3,20.3 77.7,20 78.9,19.5 L79.2,22.2 C77.8,22.8 76.1,23.1 74.4,23.1 C70.2,23.1 67.8,21 67.8,16.3 C67.8,12.2 70.1,9.2 74.1,9.2 C78,9.2 79.7,11.9 79.7,15.2 C79.7,15.5 79.6,16.1 79.6,16.6 Z M73.9,11.6 C72.5,11.6 71.5,12.6 71.3,14.3 L76.2,14.3 C76.3,12.6 75.4,11.6 73.9,11.6 Z M89.4,12.5 C86.9,12 85.7,13.6 85.7,17.3 L85.7,22.8 L82.3,22.8 L82.3,9.4 L85.6,9.4 C85.6,10.1 85.5,11.1 85.4,12.1 L85.5,12.1 C86.1,10.4 87.4,8.9 89.7,9.1 L89.4,12.5 Z M96.7,23 C93.7,23 92.8,21.9 92.8,18.8 L92.8,12 L90.5,12 L90.5,9.4 L92.8,9.4 L92.8,5.3 L96.2,4.4 L96.2,9.4 L99.5,9.4 L99.5,12.1 L96.2,12.1 L96.2,18 C96.2,19.7 96.6,20.2 97.8,20.2 C98.4,20.2 99,20.1 99.5,20 L99.5,22.8 C98.6,22.9 97.6,23 96.7,23 Z M103.4,7.7 C102.2,7.7 101.3,6.8 101.3,5.6 C101.3,4.5 102.2,3.5 103.4,3.5 C104.6,3.5 105.6,4.4 105.6,5.6 C105.6,6.8 104.6,7.7 103.4,7.7 Z M101.7,22.8 L101.7,9.4 L105.1,9.4 L105.1,22.8 L101.7,22.8 Z M119.3,16.6 L111,16.6 C111,19.1 112.2,20.3 114.7,20.3 C116,20.3 117.4,20 118.6,19.5 L118.9,22.2 C117.5,22.8 115.8,23.1 114.1,23.1 C109.9,23.1 107.5,21 107.5,16.3 C107.5,12.2 109.8,9.2 113.8,9.2 C117.7,9.2 119.4,11.9 119.4,15.2 C119.4,15.5 119.4,16.1 119.3,16.6 Z M113.7,11.6 C112.3,11.6 111.3,12.6 111.1,14.3 L116,14.3 C116.1,12.6 115.1,11.6 113.7,11.6 Z M131.2,23 C129.9,23 128.6,22.9 127.5,22.6 L127.7,19.3 C128.7,19.6 130.2,19.9 131.5,19.9 C133.3,19.9 134.6,19.2 134.6,17.5 C134.6,14 127,15.6 127,9.6 C127,6.4 129.6,4.1 133.9,4.1 C134.9,4.1 136.1,4.2 137.2,4.4 L137,7.5 C136,7.2 134.8,7 133.7,7 C131.7,7 130.7,7.9 130.7,9.2 C130.7,12.5 138.3,11.2 138.3,16.9 C138.4,20.5 135.7,23 131.2,23 Z M146.1,23 C142.4,23 140.1,21.1 140.1,16.5 C140.1,12.3 142.3,9.1 147,9.1 C147.9,9.1 148.9,9.2 149.7,9.5 L149.4,12.5 C148.7,12.2 147.8,12 147,12 C144.8,12 143.7,13.6 143.7,16.1 C143.7,18.4 144.6,19.9 146.9,19.9 C147.8,19.9 148.8,19.7 149.5,19.3 L149.8,22.2 C148.9,22.7 147.6,23 146.1,23 Z M160.3,22.8 L160.3,14.3 C160.3,12.9 159.9,12.1 158.7,12.1 C157,12.1 155.6,14.1 155.6,16.4 L155.6,22.9 L152.2,22.9 L152.2,3.1 L155.6,3.1 L155.6,8.8 C155.6,9.6 155.5,10.7 155.4,11.5 L155.5,11.5 C156.3,10 157.8,9 159.9,9 C162.9,9 163.9,10.9 163.9,13.3 L163.9,22.7 L160.3,22.7 L160.3,22.8 Z M172.4,23 C168.6,23 166.2,21 166.2,16.3 C166.2,12.1 169,9.1 173,9.1 C176.8,9.1 179.2,11.2 179.2,15.8 C179.2,20 176.4,23 172.4,23 Z M172.7,12 C171.2,12 169.7,13.2 169.7,15.9 C169.7,18.6 170.7,20 172.7,20 C174.4,20 175.7,18.6 175.7,15.9 C175.7,13.4 174.8,12 172.7,12 Z M187.1,23 C183.3,23 180.9,21 180.9,16.3 C180.9,12.1 183.7,9.1 187.7,9.1 C191.5,9.1 193.9,11.2 193.9,15.8 C193.9,20 191.1,23 187.1,23 Z M187.4,12 C185.9,12 184.4,13.2 184.4,15.9 C184.4,18.6 185.4,20 187.4,20 C189.1,20 190.4,18.6 190.4,15.9 C190.4,13.4 189.4,12 187.4,12 Z M196.3,22.8 L196.3,3.1 L199.7,3.1 L199.7,22.7 L196.3,22.7 L196.3,22.8 Z M56.9,47.8 C51.9,47.8 49.4,44.7 49.4,39.6 C49.4,34.6 51.7,30.7 57.4,30.7 C58.7,30.7 60.1,30.9 61.3,31.2 L61.1,32.7 C59.7,32.2 58.4,32 57,32 C52.7,32 51,35.3 51,39.2 C51,43.7 53,46.3 57.2,46.3 C58.6,46.3 60.2,45.9 61.3,45.3 L61.5,46.7 C60.3,47.4 58.7,47.8 56.9,47.8 Z M73.3,40.9 L65,40.9 C64.9,44.9 66.4,46.5 69.2,46.5 C70.5,46.5 71.9,46.2 72.8,45.7 L72.9,47.1 C71.8,47.5 70.5,47.8 68.9,47.8 C65.2,47.8 63.3,45.8 63.3,41.5 C63.3,37.8 65.3,35.1 68.6,35.1 C71.9,35.1 73.3,37.4 73.3,40 C73.4,40.2 73.4,40.5 73.3,40.9 Z M68.6,36.3 C66.8,36.3 65.5,37.6 65.1,39.7 L71.7,39.7 C71.8,37.7 70.6,36.3 68.6,36.3 Z M84.3,47.6 L84.3,39.6 C84.3,37.5 83.7,36.3 81.8,36.3 C79.5,36.3 77.8,38.6 77.8,41.7 L77.8,47.6 L76.2,47.6 L76.2,35.3 L77.8,35.3 C77.8,36.1 77.7,37.4 77.6,38.1 L77.6,38.1 C78.3,36.2 79.9,35 82.1,35 C84.9,35 85.8,36.8 85.8,39 L85.8,47.6 L84.3,47.6 L84.3,47.6 Z M93.6,47.8 C91.2,47.8 90.5,46.7 90.5,44.2 L90.5,36.5 L87.7,36.5 L87.7,35.3 L90.5,35.3 L90.5,31.1 L92.1,30.7 L92.1,35.3 L95.9,35.3 L95.9,36.5 L92.1,36.5 L92.1,43.4 C92.1,45.7 92.5,46.3 94.1,46.3 C94.7,46.3 95.4,46.2 95.9,46.1 L95.9,47.5 C95.3,47.7 94.4,47.8 93.6,47.8 Z M104.2,36.6 C101.4,36.2 100.1,38.4 100.1,42.7 L100.1,47.6 L98.5,47.6 L98.5,35.3 L100.1,35.3 C100.1,36.2 100,37.4 99.8,38.5 L99.8,38.5 C100.3,36.7 101.6,34.7 104.3,35.1 L104.2,36.6 Z M115.3,40.9 L107,40.9 C106.9,44.9 108.4,46.5 111.2,46.5 C112.5,46.5 113.9,46.2 114.8,45.7 L114.9,47.1 C113.8,47.5 112.5,47.8 110.9,47.8 C107.2,47.8 105.3,45.8 105.3,41.5 C105.3,37.8 107.3,35.1 110.6,35.1 C113.9,35.1 115.3,37.4 115.3,40 C115.4,40.2 115.4,40.5 115.3,40.9 Z M110.5,36.3 C108.7,36.3 107.4,37.6 107,39.7 L113.6,39.7 C113.8,37.7 112.5,36.3 110.5,36.3 Z M131.3,31 C130.7,30.8 129.9,30.7 129.3,30.7 C127.3,30.7 126.4,31.9 126.4,34.4 L126.4,35.3 L130.2,35.3 L130.2,36.5 L126.4,36.5 L126.4,47.6 L124.8,47.6 L124.8,36.5 L122,36.5 L122,35.3 L124.8,35.3 L124.8,34.5 C124.8,31.1 126.5,29.5 129.4,29.5 C130.1,29.5 130.8,29.6 131.4,29.7 L131.3,31 Z M136.3,47.8 C133,47.8 131,45.8 131,41.5 C131,38.1 133.1,35.1 136.8,35.1 C139.7,35.1 142.2,36.7 142.2,41.3 C142,44.9 139.9,47.8 136.3,47.8 Z M136.5,36.4 C134.5,36.4 132.5,38 132.5,41.4 C132.5,44.7 133.9,46.5 136.5,46.5 C138.5,46.5 140.4,44.9 140.4,41.3 C140.4,38.3 139.1,36.4 136.5,36.4 Z M150.7,36.6 C147.9,36.2 146.6,38.4 146.6,42.7 L146.6,47.6 L145,47.6 L145,35.3 L146.6,35.3 C146.6,36.2 146.5,37.4 146.3,38.5 L146.3,38.5 C146.8,36.7 148.1,34.7 150.8,35.1 L150.7,36.6 Z M50.5,72.3 L50.5,55.6 L52.1,55.6 L52.1,72.3 L50.5,72.3 Z M64.1,72.3 L64.1,64.3 C64.1,62.2 63.5,61 61.6,61 C59.3,61 57.6,63.3 57.6,66.4 L57.6,72.3 L56,72.3 L56,60 L57.6,60 C57.6,60.8 57.5,62.1 57.4,62.8 L57.4,62.8 C58.1,60.9 59.7,59.7 61.9,59.7 C64.7,59.7 65.6,61.5 65.6,63.7 L65.6,72.3 L64.1,72.3 Z M73.4,72.5 C71,72.5 70.3,71.4 70.3,68.9 L70.3,61.2 L67.5,61.2 L67.5,60 L70.3,60 L70.3,55.8 L71.9,55.4 L71.9,60 L75.7,60 L75.7,61.2 L71.9,61.2 L71.9,68.1 C71.9,70.4 72.3,71 73.9,71 C74.5,71 75.2,70.9 75.7,70.8 L75.7,72.2 C75,72.4 74.2,72.5 73.4,72.5 Z M87.1,65.6 L78.8,65.6 C78.7,69.6 80.2,71.2 83,71.2 C84.3,71.2 85.7,70.9 86.6,70.4 L86.7,71.8 C85.6,72.2 84.3,72.5 82.7,72.5 C79,72.5 77.1,70.5 77.1,66.2 C77.1,62.5 79.1,59.8 82.4,59.8 C85.7,59.8 87.1,62.1 87.1,64.7 C87.1,65 87.1,65.3 87.1,65.6 Z M82.3,61 C80.5,61 79.2,62.3 78.8,64.4 L85.4,64.4 C85.5,62.4 84.3,61 82.3,61 Z M95.7,61.4 C92.9,61 91.6,63.2 91.6,67.5 L91.6,72.4 L90,72.4 L90,60 L91.6,60 C91.6,60.9 91.5,62.1 91.3,63.2 L91.3,63.2 C91.8,61.4 93.1,59.4 95.8,59.8 L95.7,61.4 Z M106.2,72.3 L106.2,64.3 C106.2,62.2 105.6,61 103.7,61 C101.4,61 99.7,63.3 99.7,66.4 L99.7,72.3 L98.1,72.3 L98.1,60 L99.7,60 C99.7,60.8 99.6,62.1 99.5,62.8 L99.5,62.8 C100.2,60.9 101.8,59.7 104,59.7 C106.8,59.7 107.7,61.5 107.7,63.7 L107.7,72.3 L106.2,72.3 Z M118.1,72.3 C118.1,71.3 118.1,70.3 118.2,69.6 L118.2,69.6 C117.6,71.2 116,72.5 113.8,72.5 C111.9,72.5 110.5,71.5 110.5,69.6 C110.5,67.1 113.1,65.3 118.1,65.3 L118.1,64.2 C118.1,62.2 117.4,61.1 115.2,61.1 C114,61.1 112.5,61.5 111.4,62.2 L111.2,60.8 C112.4,60.3 113.8,59.9 115.4,59.9 C118.7,59.9 119.6,61.6 119.6,63.9 L119.6,68.6 C119.6,69.9 119.6,71.3 119.6,72.4 L118.1,72.4 L118.1,72.3 Z M118.1,66.5 C113.2,66.5 112.1,68.1 112.1,69.3 C112.1,70.5 112.9,71.3 114.2,71.3 C116.5,71.3 118.1,69 118.1,66.7 L118.1,66.5 Z M127.4,72.5 C125,72.5 124.3,71.4 124.3,68.9 L124.3,61.2 L121.5,61.2 L121.5,60 L124.3,60 L124.3,55.8 L125.9,55.4 L125.9,60 L129.7,60 L129.7,61.2 L125.9,61.2 L125.9,68.1 C125.9,70.4 126.3,71 127.9,71 C128.5,71 129.2,70.9 129.7,70.8 L129.7,72.2 C129,72.4 128.2,72.5 127.4,72.5 Z M133.1,57.7 C132.5,57.7 132,57.2 132,56.6 C132,56 132.5,55.5 133.1,55.5 C133.7,55.5 134.2,56 134.2,56.6 C134.2,57.2 133.7,57.7 133.1,57.7 Z M132.3,72.3 L132.3,60 L133.9,60 L133.9,72.3 L132.3,72.3 Z M142,72.5 C138.7,72.5 136.7,70.5 136.7,66.2 C136.7,62.8 138.8,59.8 142.5,59.8 C145.4,59.8 147.9,61.4 147.9,66 C147.8,69.6 145.6,72.5 142,72.5 Z M142.3,61.1 C140.3,61.1 138.3,62.7 138.3,66.1 C138.3,69.4 139.7,71.2 142.3,71.2 C144.3,71.2 146.2,69.6 146.2,66 C146.2,63 144.9,61.1 142.3,61.1 Z M158.8,72.3 L158.8,64.3 C158.8,62.2 158.2,61 156.3,61 C154,61 152.3,63.3 152.3,66.4 L152.3,72.3 L150.7,72.3 L150.7,60 L152.3,60 C152.3,60.8 152.2,62.1 152.1,62.8 L152.1,62.8 C152.8,60.9 154.4,59.7 156.6,59.7 C159.4,59.7 160.3,61.5 160.3,63.7 L160.3,72.3 L158.8,72.3 Z M170.7,72.3 C170.7,71.3 170.7,70.3 170.8,69.6 L170.8,69.6 C170.2,71.2 168.6,72.5 166.4,72.5 C164.5,72.5 163.1,71.5 163.1,69.6 C163.1,67.1 165.7,65.3 170.7,65.3 L170.7,64.2 C170.7,62.2 170,61.1 167.8,61.1 C166.6,61.1 165.1,61.5 164,62.2 L163.8,60.8 C165,60.3 166.4,59.9 168,59.9 C171.3,59.9 172.2,61.6 172.2,63.9 L172.2,68.6 C172.2,69.9 172.2,71.3 172.2,72.4 L170.7,72.4 L170.7,72.3 Z M170.7,66.5 C165.8,66.5 164.7,68.1 164.7,69.3 C164.7,70.5 165.5,71.3 166.8,71.3 C169.1,71.3 170.7,69 170.7,66.7 L170.7,66.5 Z M176,72.3 L176,54.3 L177.6,54.3 L177.6,72.4 L176,72.4 L176,72.3 Z M190.2,72.5 C188.9,72.5 187.8,72.4 186.8,72.1 L186.9,70.5 C187.9,70.8 189.2,71.1 190.3,71.1 C192.5,71.1 194.5,70.2 194.5,67.8 C194.5,63.7 186.6,65.2 186.6,60 C186.6,57.4 188.7,55.5 192.3,55.5 C193.4,55.5 194.3,55.6 195.3,55.8 L195.2,57.3 C194.3,57 193.2,56.8 192.2,56.8 C189.7,56.8 188.3,58 188.3,59.8 C188.3,63.8 196.2,62.4 196.2,67.6 C196.2,70.5 193.9,72.5 190.2,72.5 Z M208.5,65.6 L200.2,65.6 C200.1,69.6 201.6,71.2 204.4,71.2 C205.7,71.2 207.1,70.9 208,70.4 L208.1,71.8 C207,72.2 205.7,72.5 204.1,72.5 C200.4,72.5 198.5,70.5 198.5,66.2 C198.5,62.5 200.5,59.8 203.8,59.8 C207.1,59.8 208.5,62.1 208.5,64.7 C208.5,65 208.5,65.3 208.5,65.6 Z M203.7,61 C201.9,61 200.6,62.3 200.2,64.4 L206.8,64.4 C206.9,62.4 205.7,61 203.7,61 Z M215.9,72.5 C213.3,72.5 210.6,71.4 210.6,66.6 C210.6,62.5 212.6,59.9 216.6,59.9 C217.6,59.9 218.7,60 219.6,60.3 L219.4,61.7 C218.6,61.4 217.5,61.1 216.4,61.1 C213.6,61.1 212.2,63.2 212.2,66.3 C212.2,68.9 213,71.1 216.1,71.1 C217.3,71.1 218.5,70.8 219.4,70.4 L219.5,71.8 C218.8,72.1 217.4,72.5 215.9,72.5 Z M230.1,72.3 C230.1,71.5 230.2,70.2 230.3,69.5 L230.3,69.5 C229.6,71.4 228,72.6 225.8,72.6 C223,72.6 222.1,70.8 222.1,68.6 L222.1,60 L223.7,60 L223.7,68 C223.7,70.1 224.2,71.3 226.2,71.3 C228.5,71.3 230.2,69 230.2,65.9 L230.2,60 L231.8,60 L231.8,72.3 L230.1,72.3 Z M241.2,61.4 C238.4,61 237.1,63.2 237.1,67.5 L237.1,72.4 L235.5,72.4 L235.5,60 L237.1,60 C237.1,60.9 237,62.1 236.8,63.2 L236.8,63.2 C237.3,61.4 238.6,59.4 241.3,59.8 L241.2,61.4 Z M244.5,57.7 C243.9,57.7 243.4,57.2 243.4,56.6 C243.4,56 243.9,55.5 244.5,55.5 C245.1,55.5 245.6,56 245.6,56.6 C245.6,57.2 245.1,57.7 244.5,57.7 Z M243.7,72.3 L243.7,60 L245.3,60 L245.3,72.3 L243.7,72.3 Z M253.2,72.5 C250.8,72.5 250.1,71.4 250.1,68.9 L250.1,61.2 L247.3,61.2 L247.3,60 L250.1,60 L250.1,55.8 L251.7,55.4 L251.7,60 L255.5,60 L255.5,61.2 L251.7,61.2 L251.7,68.1 C251.7,70.4 252.1,71 253.7,71 C254.3,71 255,70.9 255.5,70.8 L255.5,72.2 C254.8,72.4 254,72.5 253.2,72.5 Z M262.8,73.7 C261.4,77.5 260.3,78.7 257.7,78.7 C257.3,78.7 256.7,78.7 256.2,78.6 L256.4,77.1 C256.9,77.2 257.4,77.3 257.9,77.3 C259.5,77.3 260.2,76.6 261.3,73.8 L261.9,72.3 L257.1,60 L258.9,60 L261.7,67.6 C262.1,68.7 262.4,69.6 262.6,70.4 L262.6,70.4 C262.8,69.7 263.3,68.1 263.8,66.7 L266.2,60 L267.9,60 L262.8,73.7 Z M56.9,47.8 C51.9,47.8 49.4,44.7 49.4,39.6 C49.4,34.6 51.7,30.7 57.4,30.7 C58.7,30.7 60.1,30.9 61.3,31.2 L61.1,32.7 C59.7,32.2 58.4,32 57,32 C52.7,32 51,35.3 51,39.2 C51,43.7 53,46.3 57.2,46.3 C58.6,46.3 60.2,45.9 61.3,45.3 L61.5,46.7 C60.3,47.4 58.7,47.8 56.9,47.8 Z M73.3,40.9 L65,40.9 C64.9,44.9 66.4,46.5 69.2,46.5 C70.5,46.5 71.9,46.2 72.8,45.7 L72.9,47.1 C71.8,47.5 70.5,47.8 68.9,47.8 C65.2,47.8 63.3,45.8 63.3,41.5 C63.3,37.8 65.3,35.1 68.6,35.1 C71.9,35.1 73.3,37.4 73.3,40 C73.4,40.2 73.4,40.5 73.3,40.9 Z M68.6,36.3 C66.8,36.3 65.5,37.6 65.1,39.7 L71.7,39.7 C71.8,37.7 70.6,36.3 68.6,36.3 Z M84.3,47.6 L84.3,39.6 C84.3,37.5 83.7,36.3 81.8,36.3 C79.5,36.3 77.8,38.6 77.8,41.7 L77.8,47.6 L76.2,47.6 L76.2,35.3 L77.8,35.3 C77.8,36.1 77.7,37.4 77.6,38.1 L77.6,38.1 C78.3,36.2 79.9,35 82.1,35 C84.9,35 85.8,36.8 85.8,39 L85.8,47.6 L84.3,47.6 L84.3,47.6 Z M93.6,47.8 C91.2,47.8 90.5,46.7 90.5,44.2 L90.5,36.5 L87.7,36.5 L87.7,35.3 L90.5,35.3 L90.5,31.1 L92.1,30.7 L92.1,35.3 L95.9,35.3 L95.9,36.5 L92.1,36.5 L92.1,43.4 C92.1,45.7 92.5,46.3 94.1,46.3 C94.7,46.3 95.4,46.2 95.9,46.1 L95.9,47.5 C95.3,47.7 94.4,47.8 93.6,47.8 Z M104.2,36.6 C101.4,36.2 100.1,38.4 100.1,42.7 L100.1,47.6 L98.5,47.6 L98.5,35.3 L100.1,35.3 C100.1,36.2 100,37.4 99.8,38.5 L99.8,38.5 C100.3,36.7 101.6,34.7 104.3,35.1 L104.2,36.6 Z M115.3,40.9 L107,40.9 C106.9,44.9 108.4,46.5 111.2,46.5 C112.5,46.5 113.9,46.2 114.8,45.7 L114.9,47.1 C113.8,47.5 112.5,47.8 110.9,47.8 C107.2,47.8 105.3,45.8 105.3,41.5 C105.3,37.8 107.3,35.1 110.6,35.1 C113.9,35.1 115.3,37.4 115.3,40 C115.4,40.2 115.4,40.5 115.3,40.9 Z M110.5,36.3 C108.7,36.3 107.4,37.6 107,39.7 L113.6,39.7 C113.8,37.7 112.5,36.3 110.5,36.3 Z M131.3,31 C130.7,30.8 129.9,30.7 129.3,30.7 C127.3,30.7 126.4,31.9 126.4,34.4 L126.4,35.3 L130.2,35.3 L130.2,36.5 L126.4,36.5 L126.4,47.6 L124.8,47.6 L124.8,36.5 L122,36.5 L122,35.3 L124.8,35.3 L124.8,34.5 C124.8,31.1 126.5,29.5 129.4,29.5 C130.1,29.5 130.8,29.6 131.4,29.7 L131.3,31 Z M136.3,47.8 C133,47.8 131,45.8 131,41.5 C131,38.1 133.1,35.1 136.8,35.1 C139.7,35.1 142.2,36.7 142.2,41.3 C142,44.9 139.9,47.8 136.3,47.8 Z M136.5,36.4 C134.5,36.4 132.5,38 132.5,41.4 C132.5,44.7 133.9,46.5 136.5,46.5 C138.5,46.5 140.4,44.9 140.4,41.3 C140.4,38.3 139.1,36.4 136.5,36.4 Z M150.7,36.6 C147.9,36.2 146.6,38.4 146.6,42.7 L146.6,47.6 L145,47.6 L145,35.3 L146.6,35.3 C146.6,36.2 146.5,37.4 146.3,38.5 L146.3,38.5 C146.8,36.7 148.1,34.7 150.8,35.1 L150.7,36.6 Z M50.5,72.3 L50.5,55.6 L52.1,55.6 L52.1,72.3 L50.5,72.3 Z M64.1,72.3 L64.1,64.3 C64.1,62.2 63.5,61 61.6,61 C59.3,61 57.6,63.3 57.6,66.4 L57.6,72.3 L56,72.3 L56,60 L57.6,60 C57.6,60.8 57.5,62.1 57.4,62.8 L57.4,62.8 C58.1,60.9 59.7,59.7 61.9,59.7 C64.7,59.7 65.6,61.5 65.6,63.7 L65.6,72.3 L64.1,72.3 Z M73.4,72.5 C71,72.5 70.3,71.4 70.3,68.9 L70.3,61.2 L67.5,61.2 L67.5,60 L70.3,60 L70.3,55.8 L71.9,55.4 L71.9,60 L75.7,60 L75.7,61.2 L71.9,61.2 L71.9,68.1 C71.9,70.4 72.3,71 73.9,71 C74.5,71 75.2,70.9 75.7,70.8 L75.7,72.2 C75,72.4 74.2,72.5 73.4,72.5 Z M87.1,65.6 L78.8,65.6 C78.7,69.6 80.2,71.2 83,71.2 C84.3,71.2 85.7,70.9 86.6,70.4 L86.7,71.8 C85.6,72.2 84.3,72.5 82.7,72.5 C79,72.5 77.1,70.5 77.1,66.2 C77.1,62.5 79.1,59.8 82.4,59.8 C85.7,59.8 87.1,62.1 87.1,64.7 C87.1,65 87.1,65.3 87.1,65.6 Z M82.3,61 C80.5,61 79.2,62.3 78.8,64.4 L85.4,64.4 C85.5,62.4 84.3,61 82.3,61 Z M95.7,61.4 C92.9,61 91.6,63.2 91.6,67.5 L91.6,72.4 L90,72.4 L90,60 L91.6,60 C91.6,60.9 91.5,62.1 91.3,63.2 L91.3,63.2 C91.8,61.4 93.1,59.4 95.8,59.8 L95.7,61.4 Z M106.2,72.3 L106.2,64.3 C106.2,62.2 105.6,61 103.7,61 C101.4,61 99.7,63.3 99.7,66.4 L99.7,72.3 L98.1,72.3 L98.1,60 L99.7,60 C99.7,60.8 99.6,62.1 99.5,62.8 L99.5,62.8 C100.2,60.9 101.8,59.7 104,59.7 C106.8,59.7 107.7,61.5 107.7,63.7 L107.7,72.3 L106.2,72.3 Z M118.1,72.3 C118.1,71.3 118.1,70.3 118.2,69.6 L118.2,69.6 C117.6,71.2 116,72.5 113.8,72.5 C111.9,72.5 110.5,71.5 110.5,69.6 C110.5,67.1 113.1,65.3 118.1,65.3 L118.1,64.2 C118.1,62.2 117.4,61.1 115.2,61.1 C114,61.1 112.5,61.5 111.4,62.2 L111.2,60.8 C112.4,60.3 113.8,59.9 115.4,59.9 C118.7,59.9 119.6,61.6 119.6,63.9 L119.6,68.6 C119.6,69.9 119.6,71.3 119.6,72.4 L118.1,72.4 L118.1,72.3 Z M118.1,66.5 C113.2,66.5 112.1,68.1 112.1,69.3 C112.1,70.5 112.9,71.3 114.2,71.3 C116.5,71.3 118.1,69 118.1,66.7 L118.1,66.5 Z M127.4,72.5 C125,72.5 124.3,71.4 124.3,68.9 L124.3,61.2 L121.5,61.2 L121.5,60 L124.3,60 L124.3,55.8 L125.9,55.4 L125.9,60 L129.7,60 L129.7,61.2 L125.9,61.2 L125.9,68.1 C125.9,70.4 126.3,71 127.9,71 C128.5,71 129.2,70.9 129.7,70.8 L129.7,72.2 C129,72.4 128.2,72.5 127.4,72.5 Z M133.1,57.7 C132.5,57.7 132,57.2 132,56.6 C132,56 132.5,55.5 133.1,55.5 C133.7,55.5 134.2,56 134.2,56.6 C134.2,57.2 133.7,57.7 133.1,57.7 Z M132.3,72.3 L132.3,60 L133.9,60 L133.9,72.3 L132.3,72.3 Z M142,72.5 C138.7,72.5 136.7,70.5 136.7,66.2 C136.7,62.8 138.8,59.8 142.5,59.8 C145.4,59.8 147.9,61.4 147.9,66 C147.8,69.6 145.6,72.5 142,72.5 Z M142.3,61.1 C140.3,61.1 138.3,62.7 138.3,66.1 C138.3,69.4 139.7,71.2 142.3,71.2 C144.3,71.2 146.2,69.6 146.2,66 C146.2,63 144.9,61.1 142.3,61.1 Z M158.8,72.3 L158.8,64.3 C158.8,62.2 158.2,61 156.3,61 C154,61 152.3,63.3 152.3,66.4 L152.3,72.3 L150.7,72.3 L150.7,60 L152.3,60 C152.3,60.8 152.2,62.1 152.1,62.8 L152.1,62.8 C152.8,60.9 154.4,59.7 156.6,59.7 C159.4,59.7 160.3,61.5 160.3,63.7 L160.3,72.3 L158.8,72.3 Z M170.7,72.3 C170.7,71.3 170.7,70.3 170.8,69.6 L170.8,69.6 C170.2,71.2 168.6,72.5 166.4,72.5 C164.5,72.5 163.1,71.5 163.1,69.6 C163.1,67.1 165.7,65.3 170.7,65.3 L170.7,64.2 C170.7,62.2 170,61.1 167.8,61.1 C166.6,61.1 165.1,61.5 164,62.2 L163.8,60.8 C165,60.3 166.4,59.9 168,59.9 C171.3,59.9 172.2,61.6 172.2,63.9 L172.2,68.6 C172.2,69.9 172.2,71.3 172.2,72.4 L170.7,72.4 L170.7,72.3 Z M170.7,66.5 C165.8,66.5 164.7,68.1 164.7,69.3 C164.7,70.5 165.5,71.3 166.8,71.3 C169.1,71.3 170.7,69 170.7,66.7 L170.7,66.5 Z M176,72.3 L176,54.3 L177.6,54.3 L177.6,72.4 L176,72.4 L176,72.3 Z M190.2,72.5 C188.9,72.5 187.8,72.4 186.8,72.1 L186.9,70.5 C187.9,70.8 189.2,71.1 190.3,71.1 C192.5,71.1 194.5,70.2 194.5,67.8 C194.5,63.7 186.6,65.2 186.6,60 C186.6,57.4 188.7,55.5 192.3,55.5 C193.4,55.5 194.3,55.6 195.3,55.8 L195.2,57.3 C194.3,57 193.2,56.8 192.2,56.8 C189.7,56.8 188.3,58 188.3,59.8 C188.3,63.8 196.2,62.4 196.2,67.6 C196.2,70.5 193.9,72.5 190.2,72.5 Z M208.4,65.6 L200.1,65.6 C200,69.6 201.5,71.2 204.3,71.2 C205.6,71.2 207,70.9 207.9,70.4 L208,71.8 C206.9,72.2 205.6,72.5 204,72.5 C200.3,72.5 198.4,70.5 198.4,66.2 C198.4,62.5 200.4,59.8 203.7,59.8 C207,59.8 208.4,62.1 208.4,64.7 C208.5,65 208.5,65.3 208.4,65.6 Z M203.7,61 C201.9,61 200.6,62.3 200.2,64.4 L206.8,64.4 C206.9,62.4 205.7,61 203.7,61 Z M215.9,72.5 C213.3,72.5 210.6,71.4 210.6,66.6 C210.6,62.5 212.6,59.9 216.6,59.9 C217.6,59.9 218.7,60 219.6,60.3 L219.4,61.7 C218.6,61.4 217.5,61.1 216.4,61.1 C213.6,61.1 212.2,63.2 212.2,66.3 C212.2,68.9 213,71.1 216.1,71.1 C217.3,71.1 218.5,70.8 219.4,70.4 L219.5,71.8 C218.8,72.1 217.4,72.5 215.9,72.5 Z M230.1,72.3 C230.1,71.5 230.2,70.2 230.3,69.5 L230.3,69.5 C229.6,71.4 228,72.6 225.8,72.6 C223,72.6 222.1,70.8 222.1,68.6 L222.1,60 L223.7,60 L223.7,68 C223.7,70.1 224.2,71.3 226.2,71.3 C228.5,71.3 230.2,69 230.2,65.9 L230.2,60 L231.8,60 L231.8,72.3 L230.1,72.3 Z M241.2,61.4 C238.4,61 237.1,63.2 237.1,67.5 L237.1,72.4 L235.5,72.4 L235.5,60 L237.1,60 C237.1,60.9 237,62.1 236.8,63.2 L236.8,63.2 C237.3,61.4 238.6,59.4 241.3,59.8 L241.2,61.4 Z M244.5,57.7 C243.9,57.7 243.4,57.2 243.4,56.6 C243.4,56 243.9,55.5 244.5,55.5 C245.1,55.5 245.6,56 245.6,56.6 C245.6,57.2 245.1,57.7 244.5,57.7 Z M243.7,72.3 L243.7,60 L245.3,60 L245.3,72.3 L243.7,72.3 Z M253.2,72.5 C250.8,72.5 250.1,71.4 250.1,68.9 L250.1,61.2 L247.3,61.2 L247.3,60 L250.1,60 L250.1,55.8 L251.7,55.4 L251.7,60 L255.5,60 L255.5,61.2 L251.7,61.2 L251.7,68.1 C251.7,70.4 252.1,71 253.7,71 C254.3,71 255,70.9 255.5,70.8 L255.5,72.2 C254.8,72.4 254,72.5 253.2,72.5 Z M262.8,73.7 C261.4,77.5 260.3,78.7 257.7,78.7 C257.3,78.7 256.7,78.7 256.2,78.6 L256.4,77.1 C256.9,77.2 257.4,77.3 257.9,77.3 C259.5,77.3 260.2,76.6 261.3,73.8 L261.9,72.3 L257.1,60 L258.9,60 L261.7,67.6 C262.1,68.7 262.4,69.6 262.6,70.4 L262.6,70.4 C262.8,69.7 263.3,68.1 263.8,66.7 L266.2,60 L267.9,60 L262.8,73.7 Z"/>
    </g>
</svg>
