<?xml version="1.0" encoding="UTF-8"?>
<!DOCTYPE svg PUBLIC "-//W3C//DTD SVG 1.1//EN" "http://www.w3.org/Graphics/SVG/1.1/DTD/svg11.dtd">
<svg version="1.2" viewBox="1081 1100 4020 1599" preserveAspectRatio="xMidYMid" fill-rule="evenodd" stroke-width="28.222" stroke-linejoin="round" xmlns="http://www.w3.org/2000/svg" xml:space="preserve">
 <defs>
  <clipPath id="presentation_clip_path" clipPathUnits="userSpaceOnUse">
   <rect x="0" y="0" width="21000" height="29700"/>
  </clipPath>
  <clipPath id="presentation_clip_path_shrink" clipPathUnits="userSpaceOnUse">
   <rect x="21" y="29" width="20958" height="29641"/>
  </clipPath>
 </defs>
 <defs>
  <g/>
 </defs>
 <defs>
  <g id="bullet-char-template-57356" transform="scale(0.00048828125,-0.00048828125)">
   <path d="M 580,1141 L 1163,571 580,0 -4,571 580,1141 Z"/>
  </g>
  <g id="bullet-char-template-57354" transform="scale(0.00048828125,-0.00048828125)">
   <path d="M 8,1128 L 1137,1128 1137,0 8,0 8,1128 Z"/>
  </g>
  <g id="bullet-char-template-10146" transform="scale(0.00048828125,-0.00048828125)">
   <path d="M 174,0 L 602,739 174,1481 1456,739 174,0 Z M 1358,739 L 309,1346 659,739 1358,739 Z"/>
  </g>
  <g id="bullet-char-template-10132" transform="scale(0.00048828125,-0.00048828125)">
   <path d="M 2015,739 L 1276,0 717,0 1260,543 174,543 174,936 1260,936 717,1481 1274,1481 2015,739 Z"/>
  </g>
  <g id="bullet-char-template-10007" transform="scale(0.00048828125,-0.00048828125)">
   <path d="M 0,-2 C -7,14 -16,27 -25,37 L 356,567 C 262,823 215,952 215,954 215,979 228,992 255,992 264,992 276,990 289,987 310,991 331,999 354,1012 L 381,999 492,748 772,1049 836,1024 860,1049 C 881,1039 901,1025 922,1006 886,937 835,863 770,784 769,783 710,716 594,584 L 774,223 C 774,196 753,168 711,139 L 727,119 C 717,90 699,76 672,76 641,76 570,178 457,381 L 164,-76 C 142,-110 111,-127 72,-127 30,-127 9,-110 8,-76 1,-67 -2,-52 -2,-32 -2,-23 -1,-13 0,-2 Z"/>
  </g>
  <g id="bullet-char-template-10004" transform="scale(0.00048828125,-0.00048828125)">
   <path d="M 285,-33 C 182,-33 111,30 74,156 52,228 41,333 41,471 41,549 55,616 82,672 116,743 169,778 240,778 293,778 328,747 346,684 L 369,508 C 377,444 397,411 428,410 L 1163,1116 C 1174,1127 1196,1133 1229,1133 1271,1133 1292,1118 1292,1087 L 1292,965 C 1292,929 1282,901 1262,881 L 442,47 C 390,-6 338,-33 285,-33 Z"/>
  </g>
  <g id="bullet-char-template-9679" transform="scale(0.00048828125,-0.00048828125)">
   <path d="M 813,0 C 632,0 489,54 383,161 276,268 223,411 223,592 223,773 276,916 383,1023 489,1130 632,1184 813,1184 992,1184 1136,1130 1245,1023 1353,916 1407,772 1407,592 1407,412 1353,268 1245,161 1136,54 992,0 813,0 Z"/>
  </g>
  <g id="bullet-char-template-8226" transform="scale(0.00048828125,-0.00048828125)">
   <path d="M 346,457 C 273,457 209,483 155,535 101,586 74,649 74,723 74,796 101,859 155,911 209,963 273,989 346,989 419,989 480,963 531,910 582,859 608,796 608,723 608,648 583,586 532,535 482,483 420,457 346,457 Z"/>
  </g>
  <g id="bullet-char-template-8211" transform="scale(0.00048828125,-0.00048828125)">
   <path d="M -4,459 L 1135,459 1135,606 -4,606 -4,459 Z"/>
  </g>
  <g id="bullet-char-template-61548" transform="scale(0.00048828125,-0.00048828125)">
   <path d="M 173,740 C 173,903 231,1043 346,1159 462,1274 601,1332 765,1332 928,1332 1067,1274 1183,1159 1299,1043 1357,903 1357,740 1357,577 1299,437 1183,322 1067,206 928,148 765,148 601,148 462,206 346,322 231,437 173,577 173,740 Z"/>
  </g>
 </defs>
 <g>
  <g id="id2">
   <g id="bg-id2"/>
   <g id="bo-id2"/>
  </g>
 </g>
 <g>
  <g>
   <g id="container-id1">
    <g id="id1" clip-path="url(#presentation_clip_path)">
     <g>
      <g>
       <g id="id3">
        <path fill="currentColor" stroke="none" d="M 2614,1203 L 2614,1219 2660,1219 2660,1351 2679,1351 2679,1219 2724,1219 2724,1203 2614,1203 Z "/>
       </g>
      </g>
      <g>
       <g id="id4">
        <path fill="currentColor" stroke="none" d="M 2891,1203 L 2891,1264 2819,1264 2819,1203 2800,1203 2800,1351 2819,1351 2819,1281 2891,1281 2891,1351 2911,1351 2911,1203 2891,1203 Z "/>
       </g>
      </g>
      <g>
       <g id="id5">
        <path fill="currentColor" stroke="none" d="M 3003,1203 L 3003,1351 3087,1351 3087,1335 3023,1335 3023,1281 3081,1281 3081,1265 3023,1265 3023,1219 3084,1219 3084,1203 3003,1203 Z "/>
       </g>
      </g>
      <g>
       <g id="id6">
        <path fill="currentColor" stroke="none" d="M 3315,1203 L 3335,1203 3335,1302 C 3335,1341 3315,1353 3290,1353 3283,1353 3274,1351 3269,1349 L 3272,1334 C 3276,1336 3282,1337 3288,1337 3305,1337 3315,1329 3315,1300 L 3315,1203 Z "/>
       </g>
      </g>
      <g>
       <g id="id7">
        <path fill="currentColor" stroke="none" d="M 3553,1275 C 3553,1326 3522,1353 3485,1353 3445,1353 3418,1323 3418,1277 3418,1231 3447,1200 3487,1200 3527,1200 3553,1231 3553,1275 Z M 3438,1277 C 3438,1309 3455,1337 3486,1337 3516,1337 3533,1310 3533,1275 3533,1246 3518,1216 3486,1216 3454,1216 3438,1245 3438,1277 Z "/>
       </g>
      </g>
      <g>
       <g id="id8">
        <path fill="currentColor" stroke="none" d="M 3657,1203 L 3657,1291 C 3657,1324 3671,1337 3691,1337 3713,1337 3727,1323 3727,1291 L 3727,1203 3747,1203 3747,1289 C 3747,1334 3722,1353 3690,1353 3660,1353 3637,1336 3637,1290 L 3637,1203 3657,1203 Z "/>
       </g>
      </g>
      <g>
       <g id="id9">
        <path fill="currentColor" stroke="none" d="M 3840,1205 C 3850,1203 3864,1202 3877,1202 3897,1202 3910,1205 3920,1213 3927,1220 3931,1230 3931,1241 3931,1262 3919,1275 3903,1280 L 3903,1281 C 3915,1284 3921,1295 3925,1310 3930,1331 3933,1345 3936,1351 L 3917,1351 C 3914,1346 3911,1334 3907,1315 3903,1295 3895,1288 3877,1287 L 3860,1287 3860,1351 3840,1351 3840,1205 Z M 3860,1272 L 3879,1272 C 3899,1272 3912,1261 3912,1245 3912,1225 3898,1216 3878,1216 3869,1216 3863,1217 3860,1218 L 3860,1272 Z "/>
       </g>
      </g>
      <g>
       <g id="id10">
        <path fill="currentColor" stroke="none" d="M 4018,1351 L 4018,1203 4039,1203 4086,1277 C 4097,1294 4106,1311 4113,1326 L 4113,1325 C 4112,1305 4111,1287 4111,1264 L 4111,1203 4129,1203 4129,1351 4110,1351 4063,1275 C 4053,1259 4043,1242 4036,1226 L 4035,1226 C 4036,1245 4037,1262 4037,1287 L 4037,1351 4018,1351 Z "/>
       </g>
      </g>
      <g>
       <g id="id11">
        <path fill="currentColor" stroke="none" d="M 4246,1303 L 4231,1351 4211,1351 4261,1203 4284,1203 4335,1351 4315,1351 4298,1303 4246,1303 Z M 4294,1289 L 4280,1246 C 4276,1237 4274,1228 4272,1219 4269,1228 4267,1237 4264,1246 L 4250,1289 4294,1289 Z "/>
       </g>
      </g>
      <g>
       <g id="id12">
        <path fill="currentColor" stroke="none" d="M 4417,1203 L 4417,1351 4499,1351 4499,1335 4436,1335 4436,1203 4417,1203 Z "/>
       </g>
      </g>
      <g>
       <g id="id13">
        <path fill="currentColor" stroke="none" d="M 4820,1275 C 4820,1326 4789,1353 4752,1353 4713,1353 4685,1323 4685,1277 4685,1231 4715,1200 4754,1200 4794,1200 4820,1231 4820,1275 Z M 4706,1277 C 4706,1309 4723,1337 4753,1337 4783,1337 4800,1310 4800,1275 4800,1246 4785,1216 4753,1216 4722,1216 4706,1245 4706,1277 Z "/>
       </g>
      </g>
      <g>
       <g id="id14">
        <path fill="currentColor" stroke="none" d="M 4905,1203 L 4905,1351 4924,1351 4924,1283 4980,1283 4980,1267 4924,1267 4924,1219 4985,1219 4985,1203 4905,1203 Z "/>
       </g>
      </g>
      <g>
       <g id="id15">
        <path fill="currentColor" stroke="none" d="M 1201,1811 C 1237,1829 1290,1844 1345,1844 1427,1844 1474,1808 1474,1757 1474,1709 1441,1681 1358,1653 1256,1624 1194,1580 1194,1508 1194,1427 1274,1368 1394,1368 1458,1368 1503,1380 1531,1393 L 1509,1447 C 1489,1438 1448,1423 1392,1423 1307,1423 1274,1465 1274,1500 1274,1548 1313,1572 1398,1599 1502,1633 1556,1676 1556,1751 1556,1831 1485,1899 1340,1899 1280,1899 1214,1885 1181,1866 L 1201,1811 Z "/>
       </g>
      </g>
      <g>
       <g id="id16">
        <path fill="currentColor" stroke="none" d="M 1741,1415 L 1741,1521 1857,1521 1857,1573 1741,1573 1741,1773 C 1741,1818 1757,1844 1802,1844 1823,1844 1838,1842 1849,1840 L 1852,1890 C 1837,1895 1812,1899 1781,1899 1743,1899 1713,1889 1694,1871 1671,1851 1663,1818 1663,1775 L 1663,1573 1593,1573 1593,1521 1663,1521 1663,1433 1741,1415 Z "/>
       </g>
      </g>
      <g>
       <g id="id17">
        <path fill="currentColor" stroke="none" d="M 1929,1638 C 1929,1593 1928,1556 1925,1521 L 1997,1521 2000,1594 2003,1594 C 2023,1544 2072,1513 2126,1513 2135,1513 2141,1514 2149,1515 L 2149,1579 C 2141,1577 2132,1576 2121,1576 2065,1576 2024,1613 2013,1663 2011,1673 2010,1683 2010,1695 L 2010,1892 1929,1892 1929,1638 Z "/>
       </g>
      </g>
      <g>
       <g id="id18">
        <path fill="currentColor" stroke="none" d="M 2457,1892 L 2451,1845 2448,1845 C 2423,1874 2376,1900 2313,1900 2222,1900 2176,1847 2176,1794 2176,1705 2271,1656 2444,1657 L 2444,1649 C 2444,1617 2433,1563 2343,1563 2302,1563 2258,1573 2227,1590 L 2208,1546 C 2245,1526 2299,1513 2355,1513 2490,1513 2523,1590 2523,1665 L 2523,1803 C 2523,1835 2525,1866 2531,1892 L 2457,1892 Z M 2445,1703 C 2358,1702 2257,1715 2257,1786 2257,1830 2293,1850 2334,1850 2391,1850 2428,1820 2441,1789 2444,1782 2445,1774 2445,1767 L 2445,1703 Z "/>
       </g>
      </g>
      <g>
       <g id="id19">
        <path fill="currentColor" stroke="none" d="M 2733,1415 L 2733,1521 2848,1521 2848,1573 2733,1573 2733,1773 C 2733,1818 2748,1844 2793,1844 2814,1844 2830,1842 2840,1840 L 2844,1890 C 2828,1895 2803,1899 2772,1899 2735,1899 2704,1889 2685,1871 2661,1851 2653,1818 2653,1775 L 2653,1573 2584,1573 2584,1521 2653,1521 2653,1433 2733,1415 Z "/>
       </g>
      </g>
      <g>
       <g id="id20">
        <path fill="currentColor" stroke="none" d="M 2965,1719 C 2967,1810 3037,1847 3117,1847 3175,1847 3211,1839 3241,1828 L 3255,1876 C 3226,1887 3177,1899 3106,1899 2970,1899 2888,1824 2888,1713 2888,1602 2967,1513 3096,1513 3242,1513 3280,1620 3280,1688 3280,1702 3278,1712 3278,1719 L 2965,1719 Z M 3202,1671 C 3203,1628 3180,1561 3090,1561 3008,1561 2973,1625 2966,1671 L 3202,1671 Z "/>
       </g>
      </g>
      <g>
       <g id="id21">
        <path fill="currentColor" stroke="none" d="M 3744,1521 C 3743,1548 3741,1578 3741,1623 L 3741,1837 C 3741,1923 3721,1975 3678,2007 3635,2040 3572,2051 3516,2051 3463,2051 3405,2040 3369,2021 L 3389,1969 C 3419,1985 3464,1998 3519,1998 3602,1998 3662,1963 3662,1868 L 3662,1827 3660,1827 C 3636,1862 3588,1889 3519,1889 3409,1889 3330,1811 3330,1709 3330,1584 3429,1513 3530,1513 3607,1513 3649,1547 3668,1577 L 3670,1577 3674,1521 3744,1521 Z M 3661,1667 C 3661,1656 3660,1646 3657,1637 3642,1598 3603,1566 3544,1566 3467,1566 3412,1620 3412,1705 3412,1778 3456,1838 3543,1838 3592,1838 3637,1812 3655,1769 3659,1758 3661,1745 3661,1733 L 3661,1667 Z "/>
       </g>
      </g>
      <g>
       <g id="id22">
        <path fill="currentColor" stroke="none" d="M 3947,1418 C 3948,1440 3928,1459 3896,1459 3866,1459 3846,1440 3846,1418 3846,1394 3867,1376 3897,1376 3928,1376 3947,1394 3947,1418 Z M 3856,1521 L 3938,1521 3938,1892 3856,1892 3856,1521 Z "/>
       </g>
      </g>
      <g>
       <g id="id23">
        <path fill="currentColor" stroke="none" d="M 4370,1878 C 4349,1887 4302,1899 4241,1899 4108,1899 4021,1824 4021,1711 4021,1597 4114,1514 4259,1514 4307,1514 4350,1524 4372,1533 L 4353,1586 C 4334,1577 4304,1568 4259,1568 4157,1568 4102,1631 4102,1708 4102,1793 4168,1846 4256,1846 4303,1846 4333,1836 4356,1828 L 4370,1878 Z "/>
       </g>
      </g>
      <g>
       <g id="id24">
        <path fill="currentColor" stroke="none" d="M 2388,2508 C 2424,2526 2477,2542 2531,2542 2613,2542 2661,2506 2661,2454 2661,2406 2628,2378 2544,2352 2444,2322 2380,2278 2380,2206 2380,2125 2461,2065 2581,2065 2644,2065 2690,2077 2717,2090 L 2695,2145 C 2675,2135 2634,2120 2578,2120 2494,2120 2462,2162 2462,2197 2462,2246 2499,2270 2585,2297 2689,2331 2742,2373 2742,2449 2742,2528 2672,2597 2526,2597 2466,2597 2401,2582 2368,2564 L 2388,2508 Z "/>
       </g>
      </g>
      <g>
       <g id="id25">
        <path fill="currentColor" stroke="none" d="M 2927,2113 L 2927,2219 3043,2219 3043,2270 2927,2270 2927,2469 C 2927,2515 2943,2542 2988,2542 3009,2542 3025,2539 3035,2537 L 3039,2587 C 3023,2593 2998,2597 2967,2597 2929,2597 2898,2587 2879,2568 2856,2548 2848,2515 2848,2471 L 2848,2270 2779,2270 2779,2219 2848,2219 2848,2130 2927,2113 Z "/>
       </g>
      </g>
      <g>
       <g id="id26">
        <path fill="currentColor" stroke="none" d="M 3487,2488 C 3487,2526 3488,2560 3491,2589 L 3419,2589 3415,2529 3413,2529 C 3392,2558 3345,2597 3267,2597 3196,2597 3113,2565 3113,2436 L 3113,2219 3193,2219 3193,2424 C 3193,2494 3219,2542 3293,2542 3347,2542 3385,2510 3399,2481 3404,2471 3407,2458 3407,2446 L 3407,2219 3487,2219 3487,2488 Z "/>
       </g>
      </g>
      <g>
       <g id="id27">
        <path fill="currentColor" stroke="none" d="M 3986,2046 L 3986,2494 C 3986,2526 3987,2564 3990,2589 L 3917,2589 3914,2525 3912,2525 C 3887,2566 3832,2597 3760,2597 3653,2597 3570,2522 3570,2410 3570,2286 3661,2210 3769,2210 3837,2210 3884,2237 3904,2267 L 3906,2267 3906,2046 3986,2046 Z M 3906,2370 C 3906,2362 3905,2350 3902,2342 3890,2298 3845,2263 3785,2263 3701,2263 3652,2325 3652,2407 3652,2481 3696,2543 3783,2543 3837,2543 3887,2513 3902,2463 3905,2454 3906,2445 3906,2434 L 3906,2370 Z "/>
       </g>
      </g>
      <g>
       <g id="id28">
        <path fill="currentColor" stroke="none" d="M 4192,2115 C 4193,2138 4172,2156 4140,2156 4111,2156 4091,2138 4091,2115 4091,2091 4112,2073 4142,2073 4172,2073 4192,2091 4192,2115 Z M 4101,2220 L 4183,2220 4183,2589 4101,2589 4101,2220 Z "/>
       </g>
      </g>
      <g>
       <g id="id29">
        <path fill="currentColor" stroke="none" d="M 4343,2416 C 4345,2507 4416,2545 4496,2545 4554,2545 4589,2536 4619,2526 L 4632,2574 C 4604,2584 4556,2597 4485,2597 4348,2597 4266,2522 4266,2410 4266,2298 4345,2210 4475,2210 4620,2210 4658,2316 4658,2385 4658,2399 4656,2410 4655,2416 L 4343,2416 Z M 4580,2368 C 4581,2325 4559,2258 4469,2258 4387,2258 4350,2321 4344,2368 L 4580,2368 Z "/>
       </g>
      </g>
      <g>
       <g id="id30">
        <path fill="currentColor" stroke="none" d="M 4729,2520 C 4752,2533 4794,2547 4836,2547 4894,2547 4922,2523 4922,2492 4922,2460 4899,2442 4839,2424 4759,2400 4721,2364 4721,2319 4721,2259 4779,2210 4875,2210 4920,2210 4959,2221 4984,2233 L 4964,2282 C 4946,2273 4914,2261 4873,2261 4826,2261 4799,2283 4799,2311 4799,2341 4826,2356 4883,2375 4960,2399 5000,2431 5000,2486 5000,2551 4939,2597 4834,2597 4784,2597 4739,2587 4708,2571 L 4729,2520 Z "/>
       </g>
      </g>
     </g>
    </g>
   </g>
  </g>
 </g>
</svg>