<svg xmlns="http://www.w3.org/2000/svg" viewBox="26.87 43.23 215.42 149.71" role="img" aria-labelledby="t-full d-full">
  <title id="t-full">EISS — The European Initiative for Security Studies</title>
  <desc id="d-full">The EISS network mark, the EiSS wordmark, and the 'The European Initiative for Security Studies' tagline.</desc>
  <path transform="matrix(1,0,0,-1,195.8467,122.03819)" d="M0 0C-.509 .139-1.042 .219-1.596 .219-2.354 .219-3.079 .08-3.756-.164L-25.552 47.571C-24.786 48.016-24.136 48.613-23.629 49.313L11.063 28.677ZM-61.025 64.991C-59.903 63.317-58.008 62.22-55.873 62.22-53.732 62.22-51.853 63.28-50.717 64.903L-34.382 55.58C-34.634 55.024-34.806 54.433-34.888 53.818L-78.736 55.283ZM17.245 59.598C17.226 59.4 17.214 59.2 17.214 58.998 17.214 56.55 18.597 54.443 20.6 53.401L11.497 29.802-23.025 50.337C-22.469 51.527-22.274 52.898-22.565 54.29-23.277 57.708-26.525 59.897-29.864 59.201-31.515 58.855-32.888 57.895-33.791 56.612L-50.132 65.939C-49.95 66.344-49.808 66.771-49.715 67.216ZM-111.511 38.675-152.734 55.55C-152.637 55.875-152.568 56.212-152.524 56.558L-83.115 54.239ZM33.301 22.425C31.219 22.425 29.357 21.421 28.19 19.873L12.534 29.186 21.703 52.956C22.253 52.794 22.831 52.704 23.43 52.704 26.92 52.704 29.727 55.51 29.727 58.998 29.727 62.487 26.994 65.293 23.582 65.293 20.711 65.293 18.255 63.389 17.476 60.769L-49.586 68.399C-49.585 68.438-49.58 68.477-49.58 68.516-49.58 72.006-52.307 74.812-55.722 74.812-59.209 74.812-62.093 72.006-62.093 68.516-62.093 67.635-61.913 66.798-61.59 66.038L-81.069 55.361-152.486 57.747C-152.677 61.056-155.325 63.662-158.612 63.662-162.102 63.662-164.98 60.855-164.98 57.366-164.98 53.875-162.176 51.069-158.764 51.069-156.331 51.069-154.231 52.437-153.182 54.448L-111.437 37.36-80.783 54.161-34.929 52.629C-34.911 52.333-34.879 52.035-34.816 51.735-34.104 48.32-30.781 46.145-27.443 46.842-27.163 46.901-26.895 46.983-26.632 47.075L-4.833-.667C-6.696-1.763-7.961-3.766-7.961-6.075-7.961-9.57-5.159-12.371-1.744-12.371 1.743-12.371 4.55-9.57 4.55-6.075 4.55-3.581 3.153-1.444 1.111-.424L12.1 28.06 27.567 18.859C27.162 18.033 26.928 17.11 26.928 16.129 26.928 12.637 29.734 9.835 33.146 9.835 36.64 9.835 39.44 12.637 39.44 16.129 39.44 19.62 36.714 22.425 33.301 22.425" class="logo-network" fill="#73caff"/>
  <path transform="matrix(1,0,0,-1,45.3584,132.0035)" d="M0 0V40.728H25.865L24.424 32.841H10.164V25.254H22.075V17.29H10.241V8.268H26.318V0Z" class="logo-text" fill="currentColor"/>
  <path transform="matrix(1,0,0,-1,0,235.275)" d="M89.419 103.271H79.259998V141.778H89.419ZM90.632 152.796C90.632 149.306 87.828 146.502 84.338 146.502 80.925 146.502 78.121 149.306 78.121 152.796 78.121 156.285 81.005 159.092 84.492 159.092 87.905 159.092 90.632 156.285 90.632 152.796" class="logo-text" fill="currentColor"/>
  <path transform="matrix(1,0,0,-1,109.8213,132.9186)" d="M0 0C-4.935 0-10.013 1.064-14.947 3.418L-11.605 11.153C-7.358 9.331-3.945 8.121 .529 8.121 5.307 8.121 7.735 9.331 7.735 12.141 7.735 14.34 6.139 15.854 2.423 16.689L-2.732 17.902C-7.135 18.963-10.013 20.937-11.605 23.666-12.744 25.638-13.273 27.686-13.273 29.963-13.273 37.472-6.528 42.93 3.261 42.93 8.796 42.93 15.093 41.265 18.883 38.762L14.108 31.707C10.235 33.756 6.671 34.74 3.487 34.74 .303 34.74-1.974 33.298-1.974 31.023-1.974 29.053-1.139 28.218 2.274 27.382L7.735 26.095C14.863 24.425 19.261 20.482 19.261 14.261 19.261 5.618 11.603 0 0 0" class="logo-text" fill="currentColor"/>
  <path transform="matrix(1,0,0,-1,148.1914,132.9186)" d="M0 0C-4.926 0-10.012 1.064-14.938 3.418L-11.603 11.153C-7.357 9.331-3.944 8.121 .529 8.121 5.31 8.121 7.738 9.331 7.738 12.141 7.738 14.34 6.147 15.854 2.432 16.689L-2.727 17.902C-7.126 18.963-10.012 20.937-11.603 23.666-12.741 25.638-13.273 27.686-13.273 29.963-13.273 37.472-6.522 42.93 3.264 42.93 8.797 42.93 15.093 41.265 18.889 38.762L14.108 31.707C10.241 33.756 6.68 34.74 3.49 34.74 .304 34.74-1.974 33.298-1.974 31.023-1.974 29.053-1.136 28.218 2.277 27.382L7.738 26.095C14.867 24.425 19.264 20.482 19.264 14.261 19.264 5.618 11.604 0 0 0" class="logo-text" fill="currentColor"/>
  <path transform="matrix(1,0,0,-1,54.7036,150.00449)" d="M0 0H-3.367V-11.531H-5.592V0H-8.978V1.857H.29Z" class="logo-text" fill="currentColor"/>
  <path transform="matrix(1,0,0,-1,62.5596,161.53569)" d="M0 0V6.655C0 7.874-.425 8.223-1.238 8.223-1.992 8.223-2.901 7.739-3.599 7.023V0H-5.746V11.647C-5.746 12.518-5.823 13.272-5.939 13.775L-3.792 14.24C-3.656 13.679-3.599 12.886-3.599 11.938V9.848C-3.599 9.229-3.637 8.745-3.637 8.745-2.67 9.616-1.683 10.022-.638 10.022 .522 10.022 1.413 9.461 1.742 8.822 1.993 8.339 2.07 7.894 2.07 6.907V0Z" class="logo-text" fill="currentColor"/>
  <path transform="matrix(1,0,0,-1,71.2275,153.11969)" d="M0 0C-1.199 0-1.857-.948-1.857-2.534H1.761C1.761-.948 1.064 0 0 0M-1.876-4.102V-4.257C-1.876-5.61-1.373-7.043 .542-7.043 1.451-7.043 2.245-6.714 2.98-6.075L3.813-7.371C2.786-8.242 1.606-8.668 .291-8.668-2.477-8.668-4.218-6.675-4.218-3.54-4.218-1.818-3.85-.677-2.998 .29-2.205 1.2-1.238 1.606 0 1.606 .968 1.606 1.857 1.354 2.689 .6 3.541-.174 3.967-1.373 3.967-3.656V-4.102Z" class="logo-text" fill="currentColor"/>
  <path transform="matrix(1,0,0,-1,82.4902,161.53569)" d="M0 0V13.389H7.43L7.14 11.57H2.225V7.913H6.346V6.075H2.264V1.896H7.623V0Z" class="logo-text" fill="currentColor"/>
  <path transform="matrix(1,0,0,-1,98.9932,161.84529)" d="M0 0C-.426 .31-.678 .657-.852 1.219-1.567 .406-2.516 .02-3.638 .02-4.74 .02-5.592 .406-6.075 .986-6.462 1.451-6.617 2.09-6.617 3.309V9.944L-4.527 10.332V3.772C-4.527 2.554-4.354 1.664-3.096 1.664-2.38 1.664-1.509 2.244-1.181 2.94V9.944L.871 10.332V2.96C.871 1.489 1.471 1.006 1.471 1.006Z" class="logo-text" fill="currentColor"/>
  <path transform="matrix(1,0,0,-1,107.6807,153.60309)" d="M0 0C-.213 .077-.368 .136-.6 .136-1.49 .136-2.245-.522-2.438-1.315V-7.933H-4.566V-1.025C-4.566 .213-4.702 1.006-4.915 1.605L-2.961 2.108C-2.729 1.664-2.593 1.103-2.593 .561-1.819 1.625-1.045 2.128-.097 2.128 .213 2.128 .406 2.09 .657 1.974Z" class="logo-text" fill="currentColor"/>
  <path transform="matrix(1,0,0,-1,111.4541,156.525)" d="M0 0C0-2.844 .716-3.676 1.992-3.676 3.25-3.676 3.946-2.65 3.946-.193 3.946 2.573 3.173 3.405 1.935 3.405 .58 3.405 0 2.38 0 0M6.288-.154C6.288-3.309 4.604-5.263 1.954-5.263-.697-5.263-2.361-3.27-2.361-.135-2.361 2.999-.678 5.012 1.915 5.012 4.701 5.012 6.288 2.941 6.288-.154" class="logo-text" fill="currentColor"/>
  <path transform="matrix(1,0,0,-1,122.3477,154.2994)" d="M0 0V-4.876C.503-5.379 1.18-5.747 1.818-5.747 3.25-5.747 3.889-4.683 3.889-2.36 3.889-.175 3.463 1.006 2.07 1.006 1.296 1.006 .58 .657 0 0M2.283-7.43C1.451-7.43 .638-7.159-.039-6.637-.039-6.637 0-7.062 0-7.604V-10.874L-2.051-11.396V.019C-2.051 1.238-2.109 1.741-2.245 2.457L-.29 2.805C-.193 2.477-.155 2.205-.136 1.605 .483 2.36 1.451 2.767 2.477 2.767 4.45 2.767 6.172 1.276 6.172-2.129 6.172-5.379 4.778-7.43 2.283-7.43" class="logo-text" fill="currentColor"/>
  <path transform="matrix(1,0,0,-1,134.5566,153.11969)" d="M0 0C-1.199 0-1.857-.948-1.857-2.534H1.761C1.761-.948 1.064 0 0 0M-1.876-4.102V-4.257C-1.876-5.61-1.373-7.043 .542-7.043 1.451-7.043 2.245-6.714 2.98-6.075L3.812-7.371C2.786-8.242 1.606-8.668 .291-8.668-2.477-8.668-4.218-6.675-4.218-3.54-4.218-1.818-3.85-.677-2.999 .29-2.205 1.2-1.238 1.606 0 1.606 .968 1.606 1.857 1.354 2.689 .6 3.541-.174 3.967-1.373 3.967-3.656V-4.102Z" class="logo-text" fill="currentColor"/>
  <path transform="matrix(1,0,0,-1,145.4707,156.9117)" d="M0 0C-2.128 0-2.767-.619-2.767-1.857-2.767-2.786-2.264-3.366-1.412-3.366-.735-3.366-.077-2.96 .349-2.341L.387-.02C.387-.02 .155 0 0 0M2.206-5.03C1.605-4.799 1.103-4.334 .871-3.715 .077-4.604-.774-4.914-1.818-4.914-4.063-4.914-5.069-3.676-5.069-1.974-5.069 .29-3.366 1.432-.232 1.432H.426V1.954C.426 3.076 .232 3.676-.929 3.676-2.341 3.676-3.851 2.554-3.851 2.554L-4.798 4.082C-3.328 5.011-2.109 5.417-.639 5.417 .89 5.417 1.915 4.856 2.341 3.792 2.516 3.366 2.516 2.844 2.496 1.393L2.457-1.412C2.438-2.729 2.554-3.153 3.309-3.676Z" class="logo-text" fill="currentColor"/>
  <path transform="matrix(1,0,0,-1,156.5391,161.53569)" d="M0 0V6.501C0 7.836-.31 8.203-1.122 8.203-1.741 8.203-2.632 7.739-3.271 7.101V0H-5.359V7.197C-5.359 8.223-5.456 8.822-5.728 9.52L-3.793 10.061C-3.561 9.616-3.444 9.19-3.444 8.668-2.399 9.558-1.49 10.022-.445 10.022 1.063 10.022 2.108 9.112 2.108 7.313V0Z" class="logo-text" fill="currentColor"/>
  <path transform="matrix(1,0,0,-1,0,235.275)" d="M166.504 87.128H168.787V73.739H166.504Z" class="logo-text" fill="currentColor"/>
  <path transform="matrix(1,0,0,-1,177.5137,161.53569)" d="M0 0V6.501C0 7.836-.31 8.203-1.122 8.203-1.741 8.203-2.632 7.739-3.271 7.101V0H-5.359V7.197C-5.359 8.223-5.456 8.822-5.728 9.52L-3.793 10.061C-3.561 9.616-3.444 9.19-3.444 8.668-2.399 9.558-1.49 10.022-.445 10.022 1.063 10.022 2.108 9.112 2.108 7.313V0Z" class="logo-text" fill="currentColor"/>
  <path transform="matrix(1,0,0,-1,182.6992,161.53569)" d="M0 0V9.635L2.147 10.022V0ZM-.31 12.653C-.31 13.446 .31 14.085 1.103 14.085 1.857 14.085 2.496 13.466 2.496 12.653 2.496 11.88 1.857 11.241 1.064 11.241 .29 11.241-.31 11.88-.31 12.653" class="logo-text" fill="currentColor"/>
  <path transform="matrix(1,0,0,-1,190.0713,151.7457)" d="M0 0H2.341L1.779-1.471H-.02V-6.966C-.02-8.185 .251-8.532 1.18-8.532 1.47-8.532 1.722-8.475 2.089-8.339L2.36-9.616C1.722-9.906 1.103-10.042 .444-10.042-1.451-10.042-2.109-8.92-2.109-7.526V-1.471H-3.192V0H-2.109C-2.109 .832-2.109 1.684-2.013 2.418L.174 2.94C.077 2.147 0 .968 0 0" class="logo-text" fill="currentColor"/>
  <path transform="matrix(1,0,0,-1,194.541,161.53569)" d="M0 0V9.635L2.147 10.022V0ZM-.31 12.653C-.31 13.446 .31 14.085 1.103 14.085 1.857 14.085 2.496 13.466 2.496 12.653 2.496 11.88 1.857 11.241 1.064 11.241 .29 11.241-.31 11.88-.31 12.653" class="logo-text" fill="currentColor"/>
  <path transform="matrix(1,0,0,-1,204.2539,156.9117)" d="M0 0C-2.128 0-2.767-.619-2.767-1.857-2.767-2.786-2.264-3.366-1.412-3.366-.735-3.366-.077-2.96 .349-2.341L.387-.02C.387-.02 .155 0 0 0M2.206-5.03C1.605-4.799 1.103-4.334 .871-3.715 .077-4.604-.774-4.914-1.818-4.914-4.063-4.914-5.069-3.676-5.069-1.974-5.069 .29-3.366 1.432-.232 1.432H.426V1.954C.426 3.076 .232 3.676-.929 3.676-2.341 3.676-3.851 2.554-3.851 2.554L-4.798 4.082C-3.328 5.011-2.109 5.417-.639 5.417 .89 5.417 1.915 4.856 2.341 3.792 2.516 3.366 2.516 2.844 2.496 1.393L2.457-1.412C2.438-2.729 2.554-3.153 3.309-3.676Z" class="logo-text" fill="currentColor"/>
  <path transform="matrix(1,0,0,-1,212.0127,151.7457)" d="M0 0H2.341L1.779-1.471H-.02V-6.966C-.02-8.185 .251-8.532 1.18-8.532 1.47-8.532 1.722-8.475 2.089-8.339L2.36-9.616C1.722-9.906 1.103-10.042 .444-10.042-1.451-10.042-2.109-8.92-2.109-7.526V-1.471H-3.192V0H-2.109C-2.109 .832-2.109 1.684-2.013 2.418L.174 2.94C.077 2.147 0 .968 0 0" class="logo-text" fill="currentColor"/>
  <path transform="matrix(1,0,0,-1,216.4824,161.53569)" d="M0 0V9.635L2.147 10.022V0ZM-.31 12.653C-.31 13.446 .31 14.085 1.103 14.085 1.857 14.085 2.496 13.466 2.496 12.653 2.496 11.88 1.857 11.241 1.064 11.241 .29 11.241-.31 11.88-.31 12.653" class="logo-text" fill="currentColor"/>
  <path transform="matrix(1,0,0,-1,225.6152,161.5748)" d="M0 0H-1.877L-5.398 9.752-3.212 10.062-1.51 4.779C-1.181 3.754-.91 2.593-.91 2.593H-.871C-.871 2.593-.658 3.754-.291 4.856L1.335 9.829H3.56Z" class="logo-text" fill="currentColor"/>
  <path transform="matrix(1,0,0,-1,234.3232,153.11969)" d="M0 0C-1.199 0-1.857-.948-1.857-2.534H1.761C1.761-.948 1.064 0 0 0M-1.876-4.102V-4.257C-1.876-5.61-1.373-7.043 .542-7.043 1.451-7.043 2.245-6.714 2.98-6.075L3.813-7.371C2.786-8.242 1.606-8.668 .291-8.668-2.477-8.668-4.218-6.675-4.218-3.54-4.218-1.818-3.85-.677-2.998 .29-2.205 1.2-1.238 1.606 0 1.606 .968 1.606 1.857 1.354 2.689 .6 3.541-.174 3.967-1.373 3.967-3.656V-4.102Z" class="logo-text" fill="currentColor"/>
  <path transform="matrix(1,0,0,-1,51.4336,172.4498)" d="M0 0C-.483 .231-.774 .348-1.18 .348-1.916 .348-2.38-.155-2.38-1.026V-2.516H.174L-.368-3.986H-2.36V-12.306H-4.469V-3.986H-5.379V-2.516H-4.431C-4.431-2.516-4.489-1.974-4.489-1.064-4.489 .967-3.25 1.915-1.509 1.915-.677 1.915 .02 1.741 .697 1.354Z" class="logo-text" fill="currentColor"/>
  <path transform="matrix(1,0,0,-1,54.5488,179.74469)" d="M0 0C0-2.844 .716-3.676 1.993-3.676 3.251-3.676 3.947-2.65 3.947-.193 3.947 2.573 3.173 3.405 1.935 3.405 .581 3.405 0 2.38 0 0M6.288-.154C6.288-3.309 4.604-5.263 1.954-5.263-.696-5.263-2.36-3.27-2.36-.135-2.36 2.999-.677 5.012 1.916 5.012 4.702 5.012 6.288 2.941 6.288-.154" class="logo-text" fill="currentColor"/>
  <path transform="matrix(1,0,0,-1,67.9199,176.82289)" d="M0 0C-.213 .077-.368 .136-.601 .136-1.49 .136-2.245-.522-2.438-1.315V-7.933H-4.566V-1.025C-4.566 .213-4.702 1.006-4.915 1.605L-2.961 2.108C-2.729 1.664-2.593 1.103-2.593 .561-1.819 1.625-1.045 2.128-.097 2.128 .213 2.128 .406 2.09 .657 1.974Z" class="logo-text" fill="currentColor"/>
  <path transform="matrix(1,0,0,-1,78.2324,185.00739)" d="M0 0C-1.528 0-3.076 .406-4.392 1.2L-3.54 2.902C-2.341 2.206-1.276 1.8 .077 1.8 1.722 1.8 2.709 2.593 2.709 3.928 2.709 4.915 2.09 5.534 .716 5.921L-.716 6.327C-1.935 6.676-2.806 7.179-3.309 7.933-3.676 8.475-3.869 9.113-3.869 9.887-3.869 12.248-2.012 13.854 .678 13.854 2.206 13.854 3.734 13.408 4.915 12.576L3.908 11.01C2.67 11.744 1.819 12.035 .755 12.035-.561 12.035-1.432 11.319-1.432 10.216-1.432 9.384-.967 8.958 .349 8.571L1.935 8.107C3.87 7.546 5.225 6.308 5.225 4.296 5.225 2.07 3.425 0 0 0" class="logo-text" fill="currentColor"/>
  <path transform="matrix(1,0,0,-1,89.5352,176.3395)" d="M0 0C-1.199 0-1.857-.948-1.857-2.534H1.761C1.761-.948 1.064 0 0 0M-1.876-4.102V-4.257C-1.876-5.61-1.373-7.043 .542-7.043 1.451-7.043 2.245-6.714 2.98-6.075L3.812-7.371C2.786-8.242 1.606-8.668 .291-8.668-2.477-8.668-4.218-6.675-4.218-3.54-4.218-1.818-3.85-.677-2.999 .29-2.205 1.2-1.238 1.606 0 1.606 .968 1.606 1.857 1.354 2.689 .6 3.541-.174 3.967-1.373 3.967-3.656V-4.102Z" class="logo-text" fill="currentColor"/>
  <path transform="matrix(1,0,0,-1,99.5586,185.00739)" d="M0 0C-2.671 0-4.16 1.877-4.16 5.03-4.16 8.591-2.032 10.293 .154 10.293 1.219 10.293 1.992 10.042 2.863 9.229L1.799 7.816C1.219 8.339 .716 8.571 .154 8.571-.522 8.571-1.084 8.224-1.394 7.585-1.684 6.985-1.8 6.075-1.8 4.856-1.8 3.521-1.587 2.67-1.142 2.187-.832 1.838-.368 1.625 .154 1.625 .832 1.625 1.489 1.954 2.128 2.593L3.134 1.297C2.244 .406 1.315 0 0 0" class="logo-text" fill="currentColor"/>
  <path transform="matrix(1,0,0,-1,111.2256,185.065)" d="M0 0C-.426 .31-.678 .657-.852 1.219-1.567 .406-2.516 .02-3.638 .02-4.74 .02-5.592 .406-6.075 .986-6.462 1.451-6.617 2.09-6.617 3.309V9.944L-4.527 10.332V3.772C-4.527 2.554-4.354 1.664-3.096 1.664-2.38 1.664-1.509 2.244-1.181 2.94V9.944L.871 10.332V2.96C.871 1.489 1.471 1.006 1.471 1.006Z" class="logo-text" fill="currentColor"/>
  <path transform="matrix(1,0,0,-1,119.9141,176.82289)" d="M0 0C-.213 .077-.368 .136-.601 .136-1.49 .136-2.245-.522-2.438-1.315V-7.933H-4.566V-1.025C-4.566 .213-4.702 1.006-4.915 1.605L-2.961 2.108C-2.729 1.664-2.593 1.103-2.593 .561-1.819 1.625-1.045 2.128-.097 2.128 .213 2.128 .406 2.09 .657 1.974Z" class="logo-text" fill="currentColor"/>
  <path transform="matrix(1,0,0,-1,122.1973,184.7555)" d="M0 0V9.635L2.147 10.022V0ZM-.31 12.653C-.31 13.446 .31 14.085 1.103 14.085 1.857 14.085 2.496 13.466 2.496 12.653 2.496 11.88 1.857 11.241 1.064 11.241 .29 11.241-.31 11.88-.31 12.653" class="logo-text" fill="currentColor"/>
  <path transform="matrix(1,0,0,-1,129.5693,174.9654)" d="M0 0H2.341L1.779-1.471H-.02V-6.966C-.02-8.185 .251-8.532 1.18-8.532 1.47-8.532 1.722-8.475 2.089-8.339L2.36-9.616C1.722-9.906 1.103-10.042 .444-10.042-1.451-10.042-2.109-8.92-2.109-7.526V-1.471H-3.192V0H-2.109C-2.109 .832-2.109 1.684-2.013 2.418L.174 2.94C.077 2.147 0 .968 0 0" class="logo-text" fill="currentColor"/>
  <path transform="matrix(1,0,0,-1,138.3926,184.9684)" d="M0 0C-.812-2.36-1.51-3.541-3.812-3.967L-4.509-2.593C-3.173-2.226-2.419-1.664-1.857 .213H-2.535C-2.806 1.315-3.173 2.38-3.464 3.25L-5.688 9.848-3.521 10.216-1.723 4.257C-1.548 3.656-1.181 2.051-1.181 2.051-1.181 2.051-.812 3.502-.445 4.701L1.18 10.003H3.463Z" class="logo-text" fill="currentColor"/>
  <path transform="matrix(1,0,0,-1,151.627,185.00739)" d="M0 0C-1.528 0-3.076 .406-4.392 1.2L-3.54 2.902C-2.341 2.206-1.276 1.8 .077 1.8 1.722 1.8 2.709 2.593 2.709 3.928 2.709 4.915 2.09 5.534 .716 5.921L-.716 6.327C-1.935 6.676-2.806 7.179-3.309 7.933-3.676 8.475-3.869 9.113-3.869 9.887-3.869 12.248-2.012 13.854 .678 13.854 2.206 13.854 3.734 13.408 4.915 12.576L3.908 11.01C2.67 11.744 1.819 12.035 .755 12.035-.561 12.035-1.432 11.319-1.432 10.216-1.432 9.384-.967 8.958 .349 8.571L1.935 8.107C3.87 7.546 5.225 6.308 5.225 4.296 5.225 2.07 3.425 0 0 0" class="logo-text" fill="currentColor"/>
  <path transform="matrix(1,0,0,-1,161.4365,174.9654)" d="M0 0H2.341L1.779-1.471H-.02V-6.966C-.02-8.185 .251-8.532 1.18-8.532 1.47-8.532 1.722-8.475 2.089-8.339L2.36-9.616C1.722-9.906 1.103-10.042 .444-10.042-1.451-10.042-2.109-8.92-2.109-7.526V-1.471H-3.192V0H-2.109C-2.109 .832-2.109 1.684-2.013 2.418L.174 2.94C.077 2.147 0 .968 0 0" class="logo-text" fill="currentColor"/>
  <path transform="matrix(1,0,0,-1,172.4062,185.065)" d="M0 0C-.426 .31-.677 .657-.852 1.219-1.567 .406-2.516 .02-3.638 .02-4.74 .02-5.592 .406-6.075 .986-6.462 1.451-6.617 2.09-6.617 3.309V9.944L-4.527 10.332V3.772C-4.527 2.554-4.354 1.664-3.096 1.664-2.38 1.664-1.509 2.244-1.181 2.94V9.944L.87 10.332V2.96C.87 1.489 1.471 1.006 1.471 1.006Z" class="logo-text" fill="currentColor"/>
  <path transform="matrix(1,0,0,-1,181.9844,177.28769)" d="M0 0C-.483 .522-1.064 .794-1.78 .794-3.135 .794-3.754-.29-3.754-2.65-3.754-4.817-3.328-5.9-1.722-5.9-.929-5.9-.29-5.456 0-4.972ZM.465-7.468C.368-7.255 .349-7.12 .29-6.714-.367-7.371-1.142-7.681-2.108-7.681-4.604-7.681-6.114-5.727-6.114-2.67-6.114 .406-4.411 2.496-2.051 2.496-1.219 2.496-.542 2.226 .058 1.606 .058 1.606 0 2.361 0 3.212V6.792L2.109 6.463V-4.062C2.109-5.997 2.226-6.984 2.419-7.468Z" class="logo-text" fill="currentColor"/>
  <path transform="matrix(1,0,0,-1,187.3447,184.7555)" d="M0 0V9.635L2.147 10.022V0ZM-.31 12.653C-.31 13.446 .31 14.085 1.103 14.085 1.857 14.085 2.496 13.466 2.496 12.653 2.496 11.88 1.857 11.241 1.064 11.241 .29 11.241-.31 11.88-.31 12.653" class="logo-text" fill="currentColor"/>
  <path transform="matrix(1,0,0,-1,196.1865,176.3395)" d="M0 0C-1.199 0-1.857-.948-1.857-2.534H1.761C1.761-.948 1.064 0 0 0M-1.876-4.102V-4.257C-1.876-5.61-1.373-7.043 .542-7.043 1.451-7.043 2.245-6.714 2.98-6.075L3.813-7.371C2.786-8.242 1.606-8.668 .291-8.668-2.477-8.668-4.218-6.675-4.218-3.54-4.218-1.818-3.85-.677-2.998 .29-2.205 1.2-1.238 1.606 0 1.606 .968 1.606 1.857 1.354 2.689 .6 3.541-.174 3.967-1.373 3.967-3.656V-4.102Z" class="logo-text" fill="currentColor"/>
  <path transform="matrix(1,0,0,-1,205.4365,185.027)" d="M0 0C-1.199 0-2.496 .388-3.754 1.084L-2.999 2.612C-2.128 2.109-.929 1.587 .174 1.587 1.103 1.587 1.761 2.148 1.761 2.961 1.761 3.715 1.277 4.103 .174 4.334L-1.006 4.586C-2.477 4.896-3.347 5.901-3.347 7.275-3.347 9.113-1.877 10.391 .29 10.391 1.625 10.391 2.689 9.984 3.521 9.539L2.825 8.068C1.916 8.553 1.199 8.784 .426 8.784-.483 8.784-1.064 8.281-1.064 7.526-1.064 6.927-.735 6.617 .252 6.366L1.471 6.057C3.444 5.554 3.967 4.47 3.967 3.328 3.967 1.354 2.36 0 0 0" class="logo-text" fill="currentColor"/>
</svg>
