<svg xmlns="http://www.w3.org/2000/svg" viewBox="26.87 43.23 212.42 95.18" role="img" aria-labelledby="t-mark d-mark">
  <title id="t-mark">EISS — network mark</title>
  <desc id="d-mark">Constellation of dots and connecting lines representing the EISS network of European security studies researchers.</desc>
  <path transform="matrix(1,0,0,-1,195.8467,122.03819)" d="M0 0C-.509 .139-1.042 .219-1.596 .219-2.354 .219-3.079 .08-3.756-.164L-25.552 47.571C-24.786 48.016-24.136 48.613-23.629 49.313L11.063 28.677ZM-61.025 64.991C-59.903 63.317-58.008 62.22-55.873 62.22-53.732 62.22-51.853 63.28-50.717 64.903L-34.382 55.58C-34.634 55.024-34.806 54.433-34.888 53.818L-78.736 55.283ZM17.245 59.598C17.226 59.4 17.214 59.2 17.214 58.998 17.214 56.55 18.597 54.443 20.6 53.401L11.497 29.802-23.025 50.337C-22.469 51.527-22.274 52.898-22.565 54.29-23.277 57.708-26.525 59.897-29.864 59.201-31.515 58.855-32.888 57.895-33.791 56.612L-50.132 65.939C-49.95 66.344-49.808 66.771-49.715 67.216ZM-111.511 38.675-152.734 55.55C-152.637 55.875-152.568 56.212-152.524 56.558L-83.115 54.239ZM33.301 22.425C31.219 22.425 29.357 21.421 28.19 19.873L12.534 29.186 21.703 52.956C22.253 52.794 22.831 52.704 23.43 52.704 26.92 52.704 29.727 55.51 29.727 58.998 29.727 62.487 26.994 65.293 23.582 65.293 20.711 65.293 18.255 63.389 17.476 60.769L-49.586 68.399C-49.585 68.438-49.58 68.477-49.58 68.516-49.58 72.006-52.307 74.812-55.722 74.812-59.209 74.812-62.093 72.006-62.093 68.516-62.093 67.635-61.913 66.798-61.59 66.038L-81.069 55.361-152.486 57.747C-152.677 61.056-155.325 63.662-158.612 63.662-162.102 63.662-164.98 60.855-164.98 57.366-164.98 53.875-162.176 51.069-158.764 51.069-156.331 51.069-154.231 52.437-153.182 54.448L-111.437 37.36-80.783 54.161-34.929 52.629C-34.911 52.333-34.879 52.035-34.816 51.735-34.104 48.32-30.781 46.145-27.443 46.842-27.163 46.901-26.895 46.983-26.632 47.075L-4.833-.667C-6.696-1.763-7.961-3.766-7.961-6.075-7.961-9.57-5.159-12.371-1.744-12.371 1.743-12.371 4.55-9.57 4.55-6.075 4.55-3.581 3.153-1.444 1.111-.424L12.1 28.06 27.567 18.859C27.162 18.033 26.928 17.11 26.928 16.129 26.928 12.637 29.734 9.835 33.146 9.835 36.64 9.835 39.44 12.637 39.44 16.129 39.44 19.62 36.714 22.425 33.301 22.425" class="logo-network" fill="#73caff"/>
</svg>
